# xmcd
#
# Track frame offsets:
#	150
#	13519
#	26415
#	41541
#	55353
#	66662
#	86254
#	101323
#	115872
#	137263
#	150717
#	172578
#	211690
#	223419
#	236263
#	250080
#	263799
# Disc length: 3719 seconds
# Revision: 1
# Processed by: cddbd v1.5.1PL0 Copyright (c) Steve Scherf et al.
#
# Submitted via: libkcddb 0.10
#
DISCID=d50e8511
DTITLE=Louis Armstrong - St. Louis Blues
DYEAR=1900
DGENRE=
TTITLE0=Ain't misbehavin'
TTITLE1=St. Louis Blues
TTITLE2=Baby wan't you please come home
TTITLE3=Harlem stomp
TTITLE4=Our Monday date
TTITLE5=Chinatown
TTITLE6=Wolverine Blues
TTITLE7=When the Saints goes marchin' in
TTITLE8=Mop mop
TTITLE9=High Society Rag
TTITLE10=St. James infirmatry
TTITLE11=Flying on a V disc
TTITLE12=Where did you stay last night
TTITLE13=Drop that sack
TTITLE14=Hotter than that
TTITLE15=You run your mouth
TTITLE16=I'm confessin'
EXTD=
EXTT0=
EXTT1=
EXTT2=
EXTT3=
EXTT4=
EXTT5=
EXTT6=
EXTT7=
EXTT8=
EXTT9=
EXTT10=
EXTT11=
EXTT12=
EXTT13=
EXTT14=
EXTT15=
EXTT16=
PLAYORDER=
